<?xml version="1.0" encoding="UTF-8"?>
<svg id="Layer_2" data-name="Layer 2" xmlns="http://www.w3.org/2000/svg" viewBox="0 0 1012.14 588.22">
  <defs>
    <style>
      .cls-1 {
        fill: #7d3cd7;
      }
    </style>
  </defs>
  <g id="Layer_1-2" data-name="Layer 1">
    <g>
      <path class="cls-1" d="M211.11,294.11c0,9.15.42,18.21,1.25,27.16,1.23,13.51,3.37,26.78,6.39,39.7,2.11,9.08,4.64,17.99,7.56,26.72,3.05,9.06,6.51,17.92,10.39,26.54,1.66-.47,3.34-.94,5.05-1.43,72.16-20.44,158.22-50.9,242.33-85.73,120.91-50.05,224.88-97.25,292.77-132.87,1.44-.76,2.85-1.5,4.24-2.24-1.84-5.05-3.84-10.03-5.99-14.94-3.72-8.57-7.85-16.92-12.34-25.06-8.05-14.56-17.3-28.38-27.62-41.3-6.24-7.81-12.88-15.32-19.9-22.45C661.86,33.78,587.48,0,505.22,0,343.66,0,212.52,130.27,211.13,291.49c-.02.87-.02,1.75-.02,2.62Z"/>
      <path class="cls-1" d="M318.23,521.12c50.83,41.93,115.97,67.1,186.99,67.1,151.94,0,276.97-115.23,292.49-263.04-63.03,31.25-139.64,65.59-228,102.2-91.28,37.82-175.8,69.31-251.47,93.74Z"/>
      <path class="cls-1" d="M1008.36,110.25c-23.15-44.6-115.44-41.52-245.07-7.33,8.52,11.44,16.28,23.49,23.15,35.94,1.37,2.51,2.72,5.02,4.02,7.54,54.46-10.03,90.98-11.08,95.47-.25,4.49,10.83-23.76,31.96-71.43,58.5-4.58,2.54-9.36,5.14-14.29,7.79-3.52,1.88-7.11,3.79-10.79,5.72-11.33,5.95-23.44,12.11-36.2,18.4-1.93.96-3.88,1.93-5.85,2.89-5.5,2.71-11.11,5.45-16.85,8.21-1.41.67-2.83,1.35-4.26,2.04-1.43.69-2.85,1.37-4.29,2.06-3.7,1.77-7.42,3.54-11.19,5.3-.63.31-1.28.61-1.93.92-3.61,1.71-7.27,3.43-10.97,5.14-2.91,1.37-5.85,2.74-8.81,4.1-3.93,1.84-7.92,3.66-11.93,5.5-.52.25-1.05.49-1.59.72-5.36,2.47-10.77,4.94-16.22,7.4-2.76,1.26-5.52,2.51-8.3,3.75-2.78,1.26-5.59,2.51-8.41,3.77-9.76,4.38-19.65,8.77-29.65,13.17-2.63,1.15-5.27,2.31-7.9,3.46-.76.32-1.52.67-2.27.99-2.54,1.12-5.09,2.22-7.65,3.34-4.35,1.89-8.7,3.79-13.08,5.68-12.29,5.3-24.68,10.61-37.1,15.88-3.37,1.43-6.73,2.85-10.12,4.28-3.36,1.43-6.73,2.83-10.1,4.26-10.12,4.26-20.25,8.46-30.33,12.65-21.98,9.11-43.92,17.83-65.53,26.11-2.71,1.05-5.4,2.08-8.1,3.09-2.69,1.03-5.38,2.04-8.07,3.05-21.45,8.07-42.55,15.64-63.03,22.72-5.12,1.77-10.21,3.5-15.25,5.2-5.05,1.7-10.05,3.36-14.99,4.98-2.47.81-4.94,1.62-7.4,2.42-2.44.79-4.89,1.59-7.31,2.36-2.63.83-5.23,1.66-7.83,2.49-4.6,1.46-9.17,2.87-13.68,4.26-2.35.72-4.69,1.43-7,2.13-2.33.7-4.62,1.41-6.91,2.08-4.49,1.35-8.93,2.65-13.32,3.92-2.31.67-4.62,1.32-6.89,1.97-1.79.51-3.55,1.01-5.3,1.5-7.67,2.13-15.12,4.15-22.36,6.03-71.49,18.57-120.37,23.89-125.84,10.14-5.56-13.93,33.74-44.59,98.61-81.83-.65-2.53-1.26-5.05-1.86-7.58-2.47-10.61-4.4-21.45-5.79-32.37C56.19,404.32-21.42,469.91,5.27,525.74c19.18,40.13,134.17,23.42,289.96-25.69,79.79-25.15,170.3-58.8,264.12-97.67,89.21-36.95,171.09-73.49,239.98-108.26v-.02c145.05-73.24,232.46-138.7,209.03-183.85Z"/>
      <path class="cls-1" d="M86.61,301.33h0c0-47.83,38.78-86.61,86.61-86.61h0c-47.83,0-86.61-38.78-86.61-86.61h0c0,47.83-38.78,86.61-86.61,86.61h0c47.83,0,86.61,38.78,86.61,86.61Z"/>
      <path class="cls-1" d="M173.22,155.17h0c0-31.89,25.85-57.74,57.74-57.74h0c-31.89,0-57.74-25.85-57.74-57.74h0c0,31.89-25.85,57.74-57.74,57.74h0c31.89,0,57.74,25.85,57.74,57.74Z"/>
    </g>
  </g>
</svg>